<?xml version="1.0" encoding="UTF-8"?>
<svg width="70px" height="70px" viewBox="0 0 70 70" version="1.1" xmlns="http://www.w3.org/2000/svg" xmlns:xlink="http://www.w3.org/1999/xlink">
    <!-- Generator: Sketch 44.1 (41455) - http://www.bohemiancoding.com/sketch -->
    <title>fnb.logo</title>
    <desc>Created with Sketch.</desc>
    <defs>
        <polygon id="path-1" points="0.0007 0.359 58.6387 0.359 58.6387 59 0.0007 59"></polygon>
    </defs>
    <g id="UC3---Menu" stroke="none" stroke-width="1" fill="none" fill-rule="evenodd">
        <g id="fnb.logo">
            <g id="Page-1" transform="translate(6.000000, 5.000000)">
                <g id="Group-3" transform="translate(0.000000, 0.641100)">
                    <mask id="mask-2" fill="white">
                        <use xlink:href="#path-1"></use>
                    </mask>
                    <g id="Clip-2"></g>
                    <path d="M29.3217,0.3587 C45.5117,0.3587 58.6387,13.4877 58.6387,29.6787 C58.6387,45.8707 45.5117,59.0007 29.3217,59.0007 C13.1317,59.0007 0.0007,45.8707 0.0007,29.6787 C0.0007,13.4877 13.1317,0.3587 29.3217,0.3587" id="Fill-1" fill="#FFFFFF" mask="url(#mask-2)"></path>
                </g>
                <path d="M4.7494,30.3338 C4.7494,16.7468 15.7474,5.7498 29.3104,5.7498 C42.8954,5.7498 53.8944,16.7468 53.8944,30.3338 C53.8944,31.1718 53.8694,32.0108 53.7704,32.8498 C50.9834,43.7468 41.0974,51.8118 29.3104,51.8118 C17.5474,51.8118 7.6594,43.7468 4.8714,32.8498 C4.7734,32.0108 4.7494,31.1718 4.7494,30.3338" id="Fill-4" fill="#FF9900"></path>
                <path d="M36.3363,32.6268 L29.3333,25.6248 L28.9643,25.2788 C26.1763,25.9188 23.5393,27.0558 21.1713,28.5338 L23.4153,30.7768 C24.4773,30.6808 25.5623,30.7298 26.5983,30.8268 C26.9903,32.1088 27.2643,33.4168 27.4603,34.7728 L30.7873,38.1508 L36.3363,32.6268 Z M32.5653,26.8568 L37.3483,31.6158 L40.0613,28.9028 C37.6443,27.7198 35.0043,26.9058 32.2433,26.5368 L32.5653,26.8568 Z M21.4183,30.8018 L16.1913,25.5738 C14.7363,25.4018 13.2803,25.3028 11.7773,25.3028 C9.0153,25.3028 6.3283,25.6008 3.7643,26.2158 C3.8363,25.7238 3.9383,25.2308 4.0343,24.7608 C8.2743,22.5658 13.0093,21.2098 18.0393,20.8918 L19.3503,22.2218 L21.1223,23.9738 C24.8953,22.1718 29.1113,21.1608 33.5723,21.1608 C33.3283,20.8408 33.0813,20.4948 32.8333,20.1748 C31.9973,20.1258 31.1583,20.0758 30.2963,20.0758 C27.3853,20.0758 24.5743,20.4948 21.9373,21.3108 L20.3333,19.7068 C19.2233,19.6078 18.0883,19.5348 16.9303,19.5348 C12.7873,19.4598 8.7703,20.1028 5.0223,21.3578 C5.2183,20.8408 5.4153,20.3728 5.6123,19.8788 C8.5983,17.7088 11.9013,16.0078 15.4503,14.8498 L14.7123,14.0848 C19.0763,11.8398 24.0573,10.6068 29.3103,10.6068 C32.4403,10.6068 35.4473,11.0268 38.3113,11.8648 C39.3463,12.8998 40.3323,14.0108 41.2433,15.1698 C41.5393,14.9468 41.8593,14.7498 42.2053,14.5288 C46.1253,15.6878 49.7753,17.5128 53.0293,19.8788 C53.2283,20.3728 53.4223,20.8408 53.6213,21.3578 C50.6123,20.3488 47.4323,19.7308 44.1533,19.5588 C44.4973,20.1988 44.8433,20.8158 45.1393,21.4808 C48.4923,22.1228 51.6743,23.2318 54.6073,24.7608 C54.7063,25.2308 54.8073,25.7238 54.8793,26.2158 C52.2893,25.6008 49.6273,25.3028 46.8653,25.3028 L46.7173,25.3028 C46.9403,25.9188 47.1353,26.5368 47.3333,27.1778 C50.0703,27.6478 52.7093,28.4368 55.1743,29.4948 C55.1993,29.7678 55.1993,30.0138 55.1993,30.2838 L55.1993,30.5308 C53.9173,30.3828 52.6103,30.3108 51.2793,30.3108 C48.7143,30.3108 46.2233,30.5808 43.8073,31.0988 C43.0203,30.5808 42.2053,30.0638 41.3663,29.5938 L36.4833,34.5008 L31.5523,39.4338 L32.0223,51.5648 C31.1323,51.6638 30.2463,51.7128 29.3103,51.7128 C28.4203,51.7128 27.5083,51.6638 26.6463,51.5648 L26.8683,46.4368 L26.9413,44.4878 L16.7833,34.3278 L16.5863,34.3538 C14.7363,34.4508 12.9373,34.7238 11.2103,35.1438 C11.0143,34.7468 10.8403,34.3538 10.6903,33.9348 C11.9503,33.2688 13.2803,32.6758 14.6613,32.2078 L13.2563,30.8018 C12.8143,30.7298 12.3693,30.6538 11.9243,30.6058 C11.4313,30.5308 10.9133,30.4808 10.4203,30.4338 C9.4093,30.3578 8.3993,30.3108 7.3633,30.3108 C6.0323,30.3108 4.7263,30.3828 3.4423,30.5308 L3.4423,30.2838 C3.4423,30.0138 3.4423,29.7678 3.4683,29.4948 C7.0203,27.9668 10.8893,27.0288 14.9573,26.7588 L19.2743,31.0728 C19.9883,30.9498 20.7023,30.8528 21.4183,30.8018 L21.4183,30.8018 Z M27.2643,36.6468 L26.1033,35.4878 C23.7843,34.7728 21.3203,34.3778 18.7783,34.3278 L27.0173,42.5648 L27.2643,36.6468 L27.2643,36.6468 Z" id="Fill-6" fill="#000000"></path>
                <path d="M4.9467,32.7498 C7.7077,43.6488 17.5707,51.7128 29.3087,51.7128 C41.0697,51.7128 50.9327,43.6488 53.6957,32.7498 C54.1887,32.6768 54.6817,32.6268 55.1507,32.5778 C54.0167,45.8448 42.8937,56.2498 29.3087,56.2498 C15.7477,56.2498 4.6267,45.8448 3.4907,32.5778 C3.9617,32.6268 4.4517,32.6768 4.9467,32.7498" id="Fill-8" fill="#01AAAD"></path>
            </g>
        </g>
    </g>
</svg>